<svg xmlns="http://www.w3.org/2000/svg" viewBox="0 0 100 100" width="100" height="100" preserveAspectRatio="xMidYMid meet" style="width: 100%; height: 100%; transform: translate3d(0px, 0px, 0px);"><defs><clipPath id="__lottie_element_2"><rect width="100" height="100" x="0" y="0"></rect></clipPath></defs><g clip-path="url(#__lottie_element_2)"><g transform="matrix(2,0,0,2,24,8)" opacity="1" style="display: block;"><g opacity="1" transform="matrix(1,0,0,1,0,0)"><path stroke-linecap="butt" stroke-linejoin="miter" fill-opacity="0" stroke-miterlimit="4" stroke="rgb(18,18,18)" stroke-opacity="1" stroke-width="1" d=" M12.843999862670898,1.8890000581741333 C12.843999862670898,9.694000244140625 12.843999862670898,39.03099822998047 12.843999862670898,39.03099822998047"></path></g><g opacity="1" transform="matrix(1,0,0,1,12.843000411987305,32.422000885009766)"><path stroke-linecap="butt" stroke-linejoin="miter" fill-opacity="0" stroke-miterlimit="4" stroke="rgb(18,18,18)" stroke-opacity="1" stroke-width="1" d=" M-9.375,-6.204999923706055 C-4.013000011444092,-4.703000068664551 -0.06499999761581421,0.19300000369548798 -0.007000000216066837,6.0320000648498535 C-0.007000000216066837,6.0320000648498535 0,6.679999828338623 0,6.679999828338623 C0,6.679999828338623 0.006000000052154064,6.038000106811523 0.006000000052154064,6.038000106811523 C0.061000000685453415,0.19699999690055847 4.010000228881836,-4.703000068664551 9.375,-6.204999923706055"></path></g></g><g transform="matrix(2,0,0,2,24,8)" opacity="1" style="display: block;"><g opacity="1" transform="matrix(1,0,0,1,0,0)"><path stroke-linecap="butt" stroke-linejoin="miter" fill-opacity="0" stroke-miterlimit="4" stroke="rgb(18,18,18)" stroke-opacity="1" stroke-width="1" d="M0 0"></path></g><g opacity="1" transform="matrix(1,0,0,1,12.843000411987305,32.422000885009766)"><path stroke-linecap="butt" stroke-linejoin="miter" fill-opacity="0" stroke-miterlimit="4" stroke="rgb(18,18,18)" stroke-opacity="1" stroke-width="1" d="M0 0"></path></g></g></g></svg>